<svg id="Lager_1" data-name="Lager 1" xmlns="http://www.w3.org/2000/svg" viewBox="0 0 608.7 183.6"><defs><style>.cls-1{fill:#fff;}</style></defs><title>su_logo_horizontal_swedish</title><g id="Layer_1" data-name="Layer 1"><path class="cls-1" d="M150.2,18.2c.1.2.1.3-.1.4a28.3,28.3,0,0,0-2,2.8c-.1.2-.1-.1-.1-.3a4,4,0,0,0-1.1-4.3,2.8,2.8,0,0,0-4,.6c-1,1.4-1,2.7,0,6.5s.6,5.3-.8,7a5.6,5.6,0,0,1-7.1.5c-2.8-1.9-2.9-2.4-3.3-2.5s-.3-.4,0-.8l2.4-3.2c.2-.3.2,0,0,.5s-1.2,3.3,1.1,4.9,3.6.5,4.4-.4,1.3-1.9.1-6.4-.4-6.3,1.4-7.6a5.1,5.1,0,0,1,6.3,0,13.5,13.5,0,0,1,2,1.8c.2.2.3.5.5.6Z"/><path class="cls-1" d="M2.4,71.5c.1-.2.2-.1.5,0a15.7,15.7,0,0,0,3,.5c.5,0-.3.4-.6.4s-2.1.5-2.7,2.8a2.5,2.5,0,0,0,1.8,3.2c2.1.4,3.1-.4,6.1-2.8s5.2-2.8,7.1-2.2a5.1,5.1,0,0,1,3.3,6,11,11,0,0,1-1.6,3.8c-.1.4-.3.5-.8.3l-3.6-.6c-.8-.1-.5-.4,0-.5s4-.5,4.6-3.2a2.7,2.7,0,0,0-2.1-3.3c-1.3-.3-2.6-.3-6.2,2.7s-5.4,3.1-7.5,2.2S.6,77.9,1.1,75.2a8.2,8.2,0,0,1,1.2-3.3C2.4,71.9,2.3,71.6,2.4,71.5Z"/><path class="cls-1" d="M119.2,182.7c-.3,0-.2-.2-.3-.4s-.7-2.2-.7-2.4.1-.2.3-.1a4.1,4.1,0,0,0,3.9,1.2,2.9,2.9,0,0,0,2.1-3.4c-.5-1.6-2.1-2.4-5.6-4s-4.2-2.9-4.5-4.7a5.8,5.8,0,0,1,4.1-6.1c2.6-.8,3.3-.7,3.8-1s.5.6.5.8.9,2.9,1.1,3.3-.1.5-.3.1-2.2-2.8-4.6-2-2.7,2.4-2.4,3.6.6,2.2,5,4.1,5.2,3.7,5.2,5.8-1.8,4.1-4.3,4.8a16.2,16.2,0,0,1-2.1.3h-1.2Z"/><path class="cls-1" d="M152.3,23.1a8.1,8.1,0,0,0,1.8-1c.2-.2.6,0,.9.3l4.8,4.8c1,1.1,4.5,4.2,4.9,4.7s.9.7.4.9l-1.7,1c-.3.1-.2,0-.2-.3s-.2-.8-1.2-1.8l-2.3-2.3c-.2-.2-.3-.2-.4,0l-4.9,5c-.8.8-5.7,5.7-5.9,6.4a1,1,0,0,0,.2,1.1c.1.2.2.8,0,.5s-1.8-2-2.2-2.3-1.9-1.6-2.1-1.9-.1-.3.3-.2a1.9,1.9,0,0,0,1.7,0c1.1-.6,5.4-4.9,6-5.5l4.8-5c.2-.2.3-.3,0-.6a32.6,32.6,0,0,0-3.3-3.1,2.1,2.1,0,0,0-1.2-.4C152.3,23.3,151.9,23.3,152.3,23.1Z"/><path class="cls-1" d="M11.4,53.9,9.7,52.4c-.2-.2-.1-.4.1-.8s2.8-5.2,3.4-6.1,3.3-5.3,3.6-5.9.5-.9.8-.7l1.2,1.4c.2.3.1.1-.2.1s-.7.6-1.5,1.8-1.3,2.4-1.4,2.6.1.4.2.6L21.8,49c1,.6,6.9,3.9,7.7,3.9s.8-.2.9-.3.7-.2.5,0A16.6,16.6,0,0,0,29.3,55c-.4.7-1.2,2.3-1.4,2.5s-.1-.2-.1-.5.3-.8-.3-1.3-6.2-3.9-7-4.3L14.4,48c-.3-.1-.5-.4-.7,0s-2.1,3.4-2.3,4.4a1.7,1.7,0,0,0,0,1C11.6,53.9,11.6,54,11.4,53.9Z"/><path class="cls-1" d="M34.5,23.6a8.5,8.5,0,0,0-1-1.9c-.2-.3-.2-.3.3-.7l5.6-4.2,5.9-4.1c.5-.4,1-.6,1.2-.1l.8,2c.1.4-.1.1-.4-.2s-.7-.2-1.9.6l-3,2c-.3.2-.2.2-.1.4s3.2,4.9,4.1,6,4.8,6.7,5.6,7.1a1.1,1.1,0,0,0,1,0c.2-.1.5,0,.1.3l-2.1,1.4-2,1.5c-.5.4-.3,0-.1-.3s.4-.5.1-1.2a70.4,70.4,0,0,0-4.3-6.7l-4.7-6.3c-.1-.2-.2-.2-.5,0l-3.8,3c-.3.3-.5.4-.6.9S34.6,24,34.5,23.6Z"/><path class="cls-1" d="M172.4,41.3c2.8,2.9,5,9.8-.7,14.5a10.1,10.1,0,0,1-13.7-.5c-2.4-2.7-4.9-8.9.4-14A9.8,9.8,0,0,1,172.4,41.3Zm-11.6,2.4c-4.2,4-3.6,8.6-1.5,10.8S166,57,170,53.2s3.7-9.1,1.1-11.3S165,39.6,160.8,43.7Z"/><path class="cls-1" d="M178,135.1a9.7,9.7,0,0,1-13.4,5.6,10.1,10.1,0,0,1-5.4-12.2c1.2-3.4,6.1-8.4,12.5-5.9A10,10,0,0,1,178,135.1Zm-7.3-9.5c-5.7-2-9.3.7-10.2,3.4s.1,6.5,5.9,8.6,9.7,0,10.7-3.7C177.4,132.4,177.5,128,170.7,125.6Z"/><path class="cls-1" d="M170.8,78.1l-2.5-.3c-.6-.1-.7-.1-.8-.4a12,12,0,0,1-2.6-7.5c0-4.8,2.3-8.8,6.9-10.2a10,10,0,0,1,10.6,3.6,11.8,11.8,0,0,1,2.2,6.6,23.3,23.3,0,0,0,.3,2.7c.1.8.1,1,.3,1.2s-.1.4-.4.4l-1.9.3-1.4.4c-.6.1-.6,0-.1-.4a3.5,3.5,0,0,0,1.9-2.6c.2-1.5.4-4.9-2-7.3s-4.8-3.3-9.1-1.5a8.8,8.8,0,0,0-5.7,8.1,6.5,6.5,0,0,0,4.2,6.5C171.3,77.9,171.7,78.1,170.8,78.1Z"/><path class="cls-1" d="M186.6,80.4a35.6,35.6,0,0,0,.5,4.7c.2.8-.2.4-.2.1a1.1,1.1,0,0,0-.9-.8,65.1,65.1,0,0,0-8.1.6,67.2,67.2,0,0,0,7,5.5,6.9,6.9,0,0,0,1.8,1.1c.2,0,.1.1.2-.1s.4-1.3.4.2v1.7a4.3,4.3,0,0,0,.2,1.2c.1.8,0,.6-.6-.1a20.5,20.5,0,0,0-3.5-2.9l-4.9-3.7s-6,5.7-7.2,7a16.5,16.5,0,0,0-2.4,3c-.2.4-.4.7-.3.2s.2-1.9.3-2.6.1-2.6.1-2.8.2-.1.4,0,2-1.5,3.9-3.4l4-4.2a46.8,46.8,0,0,0-5.9.7,4.2,4.2,0,0,0-2.1.8,1,1,0,0,0-.4.8c0,.2-.3.4-.3,0s-.1-2-.2-2.7a10.6,10.6,0,0,0-.3-2.2c0-.2.2-.4.3-.1s.2.4.6.6,1.6.3,8.3-.5,7.2-1,7.9-1.1,1.1-.4,1.2-1S186.6,79.4,186.6,80.4Z"/><path class="cls-1" d="M186.7,103.4c-.1.6-.7,3.9-.7,4.6s-.3.7-.4.2a1.3,1.3,0,0,0-.6-.9,9.2,9.2,0,0,0-3.3-.8l-3.8-.6s-.7,3-1.1,4.9-1.1,5.4-1.1,5.4l4.4,1.3c1.2.3,3,1.1,3.6.1s.7-.5.3.2l-1.1,4.1c-.2,1.2-.4.4-.3.2s.3-.8-.8-1.2-4.5-1.6-7.6-2.5-6.6-2-8-1.9-.9.2-1,.5-.6.4-.3-.1a21,21,0,0,0,1.2-4.2c.2-1.4.4-.4.4-.2a1.1,1.1,0,0,0,.6,1,60.4,60.4,0,0,0,7.1,2.3s.7-2.8,1.2-5,.9-5.1.9-5.1l-2.4-.4a37.8,37.8,0,0,0-5.2-.6,1.1,1.1,0,0,0-.8.7c-.1.2-.5.7-.3-.2a29.9,29.9,0,0,0,.6-4.2c.1-1.2.4-.7.4-.3a1.1,1.1,0,0,0,.5.8c1.2.5,3.4.9,7.9,1.5s7.9,1.1,8.5.9.6-.5.7-.7S186.9,102.5,186.7,103.4Z"/><path class="cls-1" d="M168.3,149.7a40.5,40.5,0,0,0-3.1,3.6c-.5.7-.4.1-.3-.1s.1-.6-.1-1-2.6-2.6-5.6-5.1-5.6-4.7-6.4-4.8-.7,0-1.6.7a23.6,23.6,0,0,0-3,3.5,3.2,3.2,0,0,0-.4,1.9q0,.6-.3,0a12.9,12.9,0,0,1-.6-2.5.8.8,0,0,1,.3-.7c.5-.5,4.4-4.9,4.9-5.6a22.2,22.2,0,0,0,1.8-2.2c.4-.6.5-.2.4.1a1.7,1.7,0,0,0-.2,1.3c.4,1.2,4.1,3.9,6.2,5.6,4.2,3.4,6.2,5.1,6.9,5.1a1.1,1.1,0,0,0,.9-.3C168.4,149.3,168.9,149.4,168.3,149.7Z"/><path class="cls-1" d="M144.4,149.6c.2.5,2.2,3.9,4.3,7.4l4.8,7.9c.6,1.1.7,1.4-.4.8l-9-4.5-6.2-3.1s1.1,8.5,1.2,8.9,1,7.5,1.1,7.9.1.9-.6.3-10.7-13.4-11.2-14a2.4,2.4,0,0,0-1.5-.9h-.8c-.3.1-.4-.1-.1-.3l4.4-2.2c.2-.1.5,0,.2.3s-.5.5-.4.9,7.5,10,7.5,10-1.2-8.1-1.4-9.1-.9-5.8-.9-5.8,0-.3.3-.1l8.1,4.2,5.3,2.6-5.6-9a1.9,1.9,0,0,0-1.1-1c-.6-.1-.7.1-1.1.3s-.4-.1.1-.4l1.7-1.2,1.6-1.5c.2-.2.4,0,.2.2A1,1,0,0,0,144.4,149.6Z"/><path class="cls-1" d="M100.6,174.2c0,.3.1,4.3.1,4.7s-.2.2-.3-.3a1.1,1.1,0,0,0-.8-.8,22.7,22.7,0,0,0-4.4-.1s-.1,4.5.4,5.1a1.1,1.1,0,0,0,.7.5c.2,0,.7.3.4.3H91.9c-.6.1-.3-.2.2-.3s.7-.4.9-1a37.7,37.7,0,0,0,.1-4.6,41.1,41.1,0,0,0-4.7.2,1.3,1.3,0,0,0-.6.9c0,.3-.4.6-.3.2a29.4,29.4,0,0,0,0-4.2c-.1-.6,0-.5.2-.1s.2.6.6.8a42,42,0,0,0,4.7.2s0-3.9-.1-4.4a1.2,1.2,0,0,0-1-1c-.3,0-.5-.3-.2-.2h4.6c.5-.1.2.2-.2.3a1.3,1.3,0,0,0-1,.9,34.3,34.3,0,0,0-.1,4.4h4.2a1.4,1.4,0,0,0,1-1C100.4,174.2,100.6,173.8,100.6,174.2Z"/><path class="cls-1" d="M68.1,183.4a25.9,25.9,0,0,0-5.2-1.9c-.6-.1,0-.2.3-.2s.9.1,1.2-.3,4.4-9.8,4.9-11.9.5-5-3.4-6.4-5.7.8-7.9,4.9-4.2,8.5-4.2,9.1.1.6.4.8.6.8.2.5a26.3,26.3,0,0,0-4.5-2.2c-.4-.1-.1-.3.4-.2s.5,0,.9-.3,5.3-9.6,5.9-10.5a7.8,7.8,0,0,1,5.2-3.9,9.9,9.9,0,0,1,8.7,3.8c1.7,2.4,1.1,5,.8,6.4s-4.1,9.9-4.1,11a1,1,0,0,0,.4.8C68.3,183.2,68.4,183.6,68.1,183.4Z"/><path class="cls-1" d="M42.3,172.4s-.8-8.3-1-11.2-1.1-9.8-1.1-9.8-6.5,7.1-7.4,7.9-1.6,1.7-1.6,2.3.3.7.4.9.2.7.1.5l-1.8-1.8a15.3,15.3,0,0,0-1.7-1.4c-.4-.3.1-.2.3-.1s.4.2.9.2,5.3-5.2,7.1-7.1,5.7-6.1,6.1-6.7.3-.2.3.2.7,9.1.9,10.1.6,6.7.6,7.4.3,2.8.3,2.8,3-4.3,4-5.9,3.1-4.3,3.1-5.1a1.5,1.5,0,0,0-.7-1.3c-.1-.1-.2-.5.1-.2a24.2,24.2,0,0,0,4.1,2.8c.6.3-.3.1-.5,0a2.3,2.3,0,0,0-1.2,0c-.7.2-4.4,6-5.2,7.1l-3.6,5.2c-.5.9-1.7,2.7-2,3.1S42.4,172.9,42.3,172.4Z"/><path class="cls-1" d="M33.9,137.6a17.3,17.3,0,0,0,1.5,2.2,12.5,12.5,0,0,0,1.9,2c.4.3-.1.2-.5,0s-.7-.4-1.7.2-11.9,9.7-12.3,10.2-.5.9-.2,1.4,0,.7-.1.5a20.1,20.1,0,0,0-3.2-4c-.5-.3,0-.3.3-.1s.4.2.8,0,13.3-10.3,13.5-11-.1-.8-.1-1.1S33.6,137.2,33.9,137.6Z"/><path class="cls-1" d="M24.6,64.7a35.2,35.2,0,0,0-2.1,5.2c-.1.5-.3,0-.3-.4s.2-.9-.8-1.6S7.5,62.2,6.2,62.2a1,1,0,0,0-1,.6c-.2.3-.6.4-.4,0a40.3,40.3,0,0,0,2.1-5.2c.1-.6.3,0,.3.3s-.1.8.2,1.1,14.9,6.3,15.9,6.1.6-.3.9-.6S24.9,64.2,24.6,64.7Z"/><path class="cls-1" d="M19.8,134.7l4.1-5.4-8.6.5c-1.5.1-6,.3-6.4,1s0,1,0,1.2,0,.8-.2.5-.6-1.7-1.1-2.7l-1-2.2c-.2-.3.2-.2.4,0a2.1,2.1,0,0,0,1,.6c1,.3,7.6-.1,8.9-.1s10.7-.7,11.5-.6.8-.2.3.6l-6.3,8.4c-.4.6-5.7,7.4-5.8,8.2a1.5,1.5,0,0,0,.1,1.1c.1.3,0,1.1-.1.8a31.7,31.7,0,0,0-3.2-5.1c-.4-.5.1-.2.4,0s.5,0,.9-.2S19.3,135.4,19.8,134.7Z"/><path class="cls-1" d="M20.4,107.9c.3.8,1.1,4.1,1.5,5.6a38.8,38.8,0,0,0,1.4,4.5c.1.3-.5-.2-.6-.5s0-.3-.4-.5l-.6-.2c-.9-.1-5.8,1.5-8.2,2.3s-7.3,2.2-7.8,2.8-.3.8-.3,1.2-.2,1.2-.3.6a19,19,0,0,0-.7-3.2L2.3,113c-.1-.3-.2-.4.1-.5a17.1,17.1,0,0,0,2.2-.9c.5-.3.3.1,0,.4s-.4.4-.4,1.3a46.8,46.8,0,0,0,1.4,5.1l3.2-.9,3.4-1.1a36,36,0,0,0-1.5-4.8c-.4-.5-.6-.4-1-.4s-.8-.2-.4-.3a31.5,31.5,0,0,0,4.1-1.3c.5-.2,0,.3-.2.5a1,1,0,0,0-.6,1.1,11,11,0,0,0,.6,2.6c.2.5.7,2.2.7,2.2l5.1-1.6c.7-.3,1.3-.4,1.1-1.8a15.6,15.6,0,0,0-1.5-4.9c-.5-.7-.9-.9-1-1.1s-.7-.6-.4-.5a30,30,0,0,1,2.9,1.1Z"/><path class="cls-1" d="M41.8,39.5l-5.4,5.9-1.5,1.7c-.2.2-.3-.2-.1-.5s.3-.4.1-1.1-4.7-4.5-6.7-6.2-5.4-4.9-6.2-5a1.4,1.4,0,0,0-1.2.2c-.2.1-.8.4-.4,0l2-2.1,5.2-5.5c.2-.3.3-.3.5-.1a11.7,11.7,0,0,0,1.6,1.5c.6.4.1.3-.3.3s-.4-.2-1.1.2-3.5,3.6-3.5,3.6l4.9,4.5s3.4-3.2,3.5-3.8,0-.7-.1-.8-.1-.7.2-.4A15.8,15.8,0,0,0,36,34.5c.4.3-.1.3-.3.2s-.5-.4-1.2-.1-3.4,3.5-3.4,3.5l4.1,3.5c.9.6,1.5.8,2.3,0a19.1,19.1,0,0,0,3.3-3.7,3.2,3.2,0,0,0,.2-1.5c0-.3.2-.7.3-.4s.8,2.5.8,2.8A.8.8,0,0,1,41.8,39.5Z"/><path class="cls-1" d="M19.1,98.6a21.1,21.1,0,0,0,.3,3.2c.1.5-.2-.1-.3-.4s-.1-.5-.5-.7-5.4,0-8.2.3-8.3.6-9,1.2a1.4,1.4,0,0,0-.4,1.2c0,.3-.5,1.1-.5.5s0-2.1-.1-2.8-.6-4.9-.3-6.3a5.1,5.1,0,0,1,4.8-4.1,5.2,5.2,0,0,1,4.7,3,4.4,4.4,0,0,1,1.2-1.1c1-.7,7.3-4.4,7.8-5.6a1.5,1.5,0,0,0,.1-1.3c-.1-.7.1-1.3.5,0s.4,2.9-.5,4.1S14,93.5,13.3,94s-2.7,1.6-2.7,2.8a5.5,5.5,0,0,0,.2,1.6l3.6-.4c.8-.1,3.7-.3,4.1-.7a.8.8,0,0,0,.3-.8c0-.2.5-1.2.4.1A4.6,4.6,0,0,0,19.1,98.6ZM7.6,94a4.5,4.5,0,0,0-6,1.2c-.8,1.4-.4,3.9-.4,3.9l4-.3,4.1-.3S9.8,95.3,7.6,94Z"/><path class="cls-1" d="M233.1,79.4h5.7V86c2.2,1.3,6.4,1.8,9.5,1.8,6.9,0,11.5-3.2,11.5-9,0-12.9-26.5-5.2-26.5-22.6,0-5.9,3.5-13.7,17.9-13.7,3.5,0,9.9.9,13,2.3v9.7h-5.4v-6a25.9,25.9,0,0,0-8.1-1.3c-5.2,0-11,2-11,8.4,0,12.3,26.5,4.6,26.5,22.4,0,10.6-9.1,14.5-18.4,14.5s-11.8-1.9-14.5-2.4V79.4Z"/><path class="cls-1" d="M270.4,56h5.7l.3-8.7,5.7-.3-.3,9H293v4.3H281.7c-.1,5.9-.3,11.9-.3,17.9s0,9.5,5.5,9.5a17.4,17.4,0,0,0,7-1.5l-.2,4.5a20.2,20.2,0,0,1-8,1.7c-9.9,0-9.9-7.1-9.9-11.7s.2-15.3.3-20.4h-5.7V56Z"/><path class="cls-1" d="M314.2,55.1c10.8,0,17.3,7.5,17.3,17.7s-6.4,19.6-17.3,19.6-17.3-7.5-17.3-17.7S303.4,55.1,314.2,55.1Zm0,32.6c7.6,0,11.3-6.2,11.3-13.9s-3.7-13.9-11.3-13.9-11.3,6.2-11.3,13.9S306.6,87.7,314.2,87.7Z"/><path class="cls-1" d="M365.9,90.7a37.5,37.5,0,0,1-10.3,1.7c-14.1,0-18.6-9.3-18.6-18.6,0-13.6,9.9-18.6,17.8-18.6A34.2,34.2,0,0,1,366.3,57v9.3h-5V60.7a20,20,0,0,0-5.9-.8C345.1,59.9,343,68,343,73.8c0,1.9.3,13.9,13.5,13.9,3.5,0,6.4-1,9.7-2Z"/><path class="cls-1" d="M376.3,42.8h-6.9V38.4H382V71.5l13.6-11.2h-5V55.9H406v4.3h-3.7l-14.8,12,16.1,14.9h3.9v4.3H392V87.1h4.3L381.9,73.3V87.2h4.7v4.3H371V87.2h5.1Z"/><path class="cls-1" d="M416.5,42.8h-6.9V38.4h12.6V57.1a47.6,47.6,0,0,1-.7,6.6h.1c1.5-5.4,7.3-8.7,12.6-8.7,9.8,0,12.2,6.6,12.2,13.4s-.3,13.2-.3,18.7h5.2v4.3H435.7V87.1h4.6c0-5.5.3-11.3.3-17.1,0-3.5-.1-10.4-8.1-10.4-5,0-10.6,3-10.6,12.7L421.7,87h5.2v4.3h-16V87H416Z"/><path class="cls-1" d="M472.4,55.1c10.8,0,17.3,7.5,17.3,17.7s-6.4,19.6-17.3,19.6-17.3-7.5-17.3-17.7S461.6,55.1,472.4,55.1Zm0,32.6c7.6,0,11.3-6.2,11.3-13.9S480,59.9,472.4,59.9s-11.3,6.2-11.3,13.9S464.8,87.7,472.4,87.7Z"/><path class="cls-1" d="M498.9,42.8H492V38.4h12.6l-.3,48.8H510v4.3H493.6V87.2h5.1Z"/><path class="cls-1" d="M515,87.2h4.6l.3-26.9h-5.7V56h11.4c0,1.4-.1,3.3-.2,4.3l-.6,3.6h.1c1.5-5.4,7.3-8.7,12.6-8.7s9.9,3.7,10.8,8.4h.1c.7-1.5,2.9-8.4,12.1-8.4s12.2,6.6,12.2,13.4-.3,13.2-.3,18.7h5.2v4.3H562.1V87.3h4.6c.1-5.8.3-11.5.3-17.3s-1.1-10.2-7.7-10.2c-4.6,0-10.2,3-10.2,12.7V87.2h5.1v4.3H538.6V87.2h4.6c.1-5.8.3-11.5.3-17.3s-1.1-10.2-7.7-10.2c-4.6,0-10.1,3-10.2,12.7V87.1h5.2v4.3H515.2V87.2Z"/><path class="cls-1" d="M607.1,65.8H602l-.3-5c-1.3-1.1-4.6-1.3-6.3-1.3-3.6,0-8.2,1.2-8.2,5.5s3.5,5,8.7,5.9c9,1.5,12.8,4.3,12.8,10.2s-4.3,11.4-14.6,11.4c-3.9,0-10-1-12.2-2.1l-.3-9.1h5.1l.3,5.3a22.1,22.1,0,0,0,8.1,1.6c3.7,0,8.2-1.6,8.2-5.9s-3.7-4.8-7.5-5.6c-9.5-2.1-14.3-3.7-14.3-10.7s3.8-10.7,14-10.7a39.6,39.6,0,0,1,11.3,2.1Z"/><path class="cls-1" d="M232.5,116.2h11.4c0,6.5-.3,12.9-.3,21.1,0,5.2,1,10.7,7.9,10.7,10.4,0,10.5-11.3,10.5-16.4v-11h-5.6v-4.4h11.4l-.3,31.3h5v4.3H261.9c0-1.4.1-3.3.2-4.3l.6-3.6h-.1c-1.5,4.2-5.9,8.7-12,8.7-10.2,0-12.6-6.5-12.6-14.6,0-6.5.2-12,.3-17.5h-5.7v-4.3Z"/><path class="cls-1" d="M302.4,147.4H307c0-5.5.3-11.3.3-17.1,0-3.5-.1-10.4-8.1-10.4-5,0-10.6,3-10.6,12.7v14.7h5.2v4.3H278.2v-4.3h4.6l.3-26.9h-5.8V116h11.4c0,1.4-.1,3.3-.2,4.3l-.6,3.6h.1c1.5-5.4,7.3-8.7,12.6-8.7,9.8,0,12.2,6.6,12.2,13.4s-.3,13.2-.3,18.7h5.2v4.3H302.2v-4.2Z"/><path class="cls-1" d="M328.4,120.5h-6.5v-4.4h12.2l-.3,31.3h5.7v4.3h-17v-4.3h5.7Zm2.1-22.4a4.3,4.3,0,1,1-4.3,4.3A4.3,4.3,0,0,1,330.5,98.1Z"/><path class="cls-1" d="M339.5,116.2h14.6v4.4h-4.3l8.2,22.9c.3,1,.6,2,.8,3h.1a14.7,14.7,0,0,1,.8-3l8.4-22.9h-4.6v-4.4h14.2v4.4h-3.9l-12.3,31.2h-5.7l-12.4-31.3h-4v-4.3Z"/><path class="cls-1" d="M385.6,134.5c.2,7.3,3.4,13.5,13.5,13.5a24.5,24.5,0,0,0,10.7-2.7l-.2,4.9a32.4,32.4,0,0,1-11.7,2.5c-11.3,0-18.2-6.1-18.2-18.6,0-10.5,5.7-18.7,16.5-18.7,14.1,0,15.4,12.8,15.4,19.1Zm20.1-4.4c0-5.6-3.5-10.4-9.5-10.4s-10.2,4.6-10.6,10.4Z"/><path class="cls-1" d="M422.7,120.5h-6.1v-4.4h11.7V118a86,86,0,0,1-.8,9.2h.2c1.4-5.2,3.2-11.7,12.1-11.7a13.6,13.6,0,0,1,3.6.6l-.6,5.1a14.5,14.5,0,0,0-3.9-.6c-7.3,0-10.6,7.2-10.7,13.5l-.3,13.3h6v4.3H417.2v-4.3h5Z"/><path class="cls-1" d="M471.4,126h-5.1l-.3-5c-1.3-1.1-4.6-1.3-6.3-1.3-3.6,0-8.2,1.2-8.2,5.5s3.5,5,8.7,5.9c9,1.5,12.8,4.3,12.8,10.2s-4.3,11.4-14.6,11.4c-3.9,0-10-1-12.2-2.1l-.3-9.1H451l.3,5.3a22.1,22.1,0,0,0,8.1,1.6c3.7,0,8.2-1.6,8.2-5.9s-3.7-4.8-7.5-5.6c-9.5-2.1-14.3-3.7-14.3-10.7s3.8-10.7,14-10.7a39.6,39.6,0,0,1,11.3,2.1Z"/><path class="cls-1" d="M484.6,120.5h-6.5v-4.4h12.2l-.3,31.3h5.7v4.3h-17v-4.3h5.7Zm2.2-22.4a4.3,4.3,0,1,1-4.3,4.3A4.3,4.3,0,0,1,486.8,98.1Z"/><path class="cls-1" d="M498.3,116.2H504l.3-8.7,5.7-.3-.3,9h11.2v4.4H509.6c-.1,5.9-.3,11.9-.3,17.9s0,9.5,5.5,9.5a17.4,17.4,0,0,0,7-1.5l-.2,4.5a20.2,20.2,0,0,1-8,1.7c-9.9,0-9.9-7.1-9.9-11.7s.2-15.3.3-20.4h-5.7Z"/><path class="cls-1" d="M530,134.5c.2,7.3,3.4,13.5,13.5,13.5a24.5,24.5,0,0,0,10.7-2.7l-.2,4.9a32.4,32.4,0,0,1-11.7,2.5c-11.3,0-18.2-6.1-18.2-18.6,0-10.5,5.7-18.7,16.5-18.7,14.1,0,15.4,12.8,15.4,19.1Zm20.1-4.4c0-5.6-3.5-10.4-9.5-10.4s-10.2,4.6-10.6,10.4Z"/><path class="cls-1" d="M558.6,116.2h5.7l.3-8.7,5.7-.3-.3,9h11.2v4.4H569.9c-.1,5.9-.3,11.9-.3,17.9s0,9.5,5.5,9.5a17.4,17.4,0,0,0,7-1.5l-.2,4.5a20.2,20.2,0,0,1-8,1.7c-9.9,0-9.9-7.1-9.9-11.7s.2-15.3.3-20.4h-5.7Z"/><path class="cls-1" d="M96.6,42.3c-.3.7.9-12.1.9-12.1-5.8,6.6-5.4,11.1-5.4,11.1-5.9-6.8-1.9-15.7-1.9-15.7-13.3,8.9-6.3,17.7-6.3,17.7C75,42.6,70.7,33,71.2,27.8s4.4-8.7,8.2-16.3S77.5,0,77.5,0C95,4.5,87.8,17.5,87.8,17.5c9.4-5.6,1.7-14.6,1.7-14.6,11.9,1.9,9.9,12.4,9.9,12.4,9.4-6,10-14,10-14,3.7,8-1.2,15.2-1.2,15.2,8.1-7.4,16-5.4,16-5.4a12.5,12.5,0,0,0-5.2,5.6,13.8,13.8,0,0,1,8.4-.2c-4.8,4.2-5.3,6.1-7.4,9.9s-1.5,5.1-5.1,10.8-11.9,5.9-12.3,5.9,1.9-3.2,1.5-9.1C104,34,99.2,35.7,96.6,42.3Z"/><path class="cls-1" d="M74.8,46.6v2.9h.4c4.4,0,13.2,2.2,14.2,34.1.3,11.4,1,77,1,77h7.7c.1,0,.9-68.9,1.3-77.1.7-16.3,2.6-33.9,14.2-33.9V46.7H74.8Z"/><path class="cls-1" d="M103.2,115.6c1.1.5,1.4,2,.8,3.4a2.5,2.5,0,0,1-3.1,1.6c-1.1-.5-1.4-2-.8-3.4A2.5,2.5,0,0,1,103.2,115.6Z"/><path class="cls-1" d="M72.5,125.5a2.5,2.5,0,0,1-1,3.4,2.6,2.6,0,0,1-3.5-.1c-.7-.9-.3-2.5,1-3.4S71.8,124.5,72.5,125.5Z"/><path class="cls-1" d="M135.8,85.6C133.4,88.8,124.4,97,124.4,97s-6.5,4.4-8.5,4.3l-10.4-.3s.9-7,2.3-9.8,3.7-11.4,5.2-12.7-.6-4.1-1.6-1.4-5.6,12.5-5.8,13.8-1.8,9.1-2.8,10.1-12.7,6.9-16.5,7.4c-.4.1-4.9,12.9-4.7,13.1,1.7,2.4,5.4,10.3,6.5,12.5s9.1,6.7,11.7,9.9,6.1,10.4,6.1,10.4h.4l2-4.8s-3.9-5.4-6.2-9.5c0,0-10.1-5.6-12.5-9.2s-4.9-8-5-9.9,2.9-9.8,3.9-10.5,14.2-7.1,16.1-7.3a45,45,0,0,1,11.9.4c.6.1,7.2-4.4,10.2-5.7.4-.2,7.1-8.3,11.8-11.7C141,84.4,136.8,84.3,135.8,85.6Z"/><path class="cls-1" d="M152.2,76.1a2.5,2.5,0,0,1-1.5,3.2c-1.4.7-2.9.4-3.4-.7a2.5,2.5,0,0,1,1.5-3.2C150.2,74.7,151.7,75,152.2,76.1Z"/><path class="cls-1" d="M141.9,91.2c.2,1.2-.8,2.3-2.3,2.6s-2.9-.4-3.1-1.6.8-2.3,2.3-2.6S141.7,90,141.9,91.2Z"/><path class="cls-1" d="M129.7,103.7c.2,1.2-.8,2.3-2.3,2.6s-2.9-.4-3.1-1.6.8-2.3,2.3-2.6S129.5,102.5,129.7,103.7Z"/><path class="cls-1" d="M126.4,68.2a2.6,2.6,0,0,1-1,3.5c-1.3.9-2.9.9-3.7-.1a3,3,0,0,1,4.7-3.4Z"/><path class="cls-1" d="M81.7,121.4c0-.7-3.5-3.3-9.4-3.5a53.5,53.5,0,0,0-12.4,1.4c-1,.2-1.1,1,.1,1.5s6.7,2.5,11.7,2.6S81.7,122.8,81.7,121.4Z"/><path class="cls-1" d="M81.8,121.8c-.6-.4-4.6,1.4-7.6,6.6A48.6,48.6,0,0,0,69.5,140c-.3,1,.3,1.5,1.3.6s5.4-4.7,7.9-9S83,122.5,81.8,121.8Z"/><path class="cls-1" d="M86.7,109.1c.7-.1,2.4-3.9,1.4-9.4a54.1,54.1,0,0,0-3.7-11.3c-.4-.9-1.2-.8-1.3.4s-1,6.7-.1,11.4S85.4,109.4,86.7,109.1Z"/><path class="cls-1" d="M92.2,133.9c.5.5,4.8,0,9.2-4.1a50.7,50.7,0,0,0,7.9-9.7c.5-.8.1-1.5-1.1-1s-6.5,2.9-10.2,6.3S91.2,132.8,92.2,133.9Z"/><path class="cls-1" d="M137.2,86c.2.6,3.8,2,9,.7a50.4,50.4,0,0,0,10.4-4.2c.8-.4.7-1.1-.4-1.2s-6.4-.5-10.8.6S136.9,84.8,137.2,86Z"/><path class="cls-1" d="M136.3,85.6c.6.4,4.2-1.1,7-5.6A49.7,49.7,0,0,0,148,69.8c.3-.9-.3-1.3-1.2-.6s-5,4-7.4,7.8S135.2,84.9,136.3,85.6Z"/><path class="cls-1" d="M124.9,98.4c0,.7,3.3,2.8,8.6,2.6a49.7,49.7,0,0,0,11.1-1.9c.9-.2,1-1-.2-1.3s-6.2-1.9-10.7-1.7C130.7,96.1,124.9,97.1,124.9,98.4Z"/><path class="cls-1" d="M123.9,97.7c.6.3,4.1-1.5,6.5-6.2a49.1,49.1,0,0,0,3.8-10.6c.2-.9-.4-1.3-1.2-.5s-4.7,4.5-6.7,8.5S122.8,97.1,123.9,97.7Z"/><path class="cls-1" d="M115.4,102.9c-.4.6.9,4.7,5.6,8.3a48.7,48.7,0,0,0,10.9,6.1c.9.4,1.5-.2.8-1.2s-4-5.9-8-8.9S116.3,101.7,115.4,102.9Z"/><path class="cls-1" d="M112.9,78c.1.6,3.4,1.9,8.1.7a46.5,46.5,0,0,0,9.4-3.7c.7-.4.7-1-.4-1.1a38.8,38.8,0,0,0-9.7.4C117.6,75,112.7,76.9,112.9,78Z"/><path class="cls-1" d="M111.7,77.6c.5.3,3.7-1.1,6.3-5.2a43,43,0,0,0,4.1-9.3c.2-.8-.2-1.2-1.1-.5s-4.5,3.7-6.6,7.1S110.8,77,111.7,77.6Z"/><path class="cls-1" d="M105.8,91.2c-.6,0-2.7-2.8-2.8-7.6a48.9,48.9,0,0,1,1.1-10.1c.2-.8.8-.9,1.2.1a36.4,36.4,0,0,1,2.1,9.5C107.5,85.9,107,91.1,105.8,91.2Z"/><path class="cls-1" d="M107,91.2c-.3-.5,1.2-3.7,5.5-6a40,40,0,0,1,9.4-3.6c.8-.2,1.2.3.5,1.1A38.4,38.4,0,0,1,115,89C112.5,90.3,107.6,92.2,107,91.2Z"/><path class="cls-1" d="M112.6,105.5a2.5,2.5,0,0,1-1,3.4,2.6,2.6,0,0,1-3.5-.1,2.5,2.5,0,0,1,1-3.4C110.4,104.4,111.9,104.5,112.6,105.5Z"/><path class="cls-1" d="M79.9,70.9A1.9,1.9,0,0,0,78,72.8a1.8,1.8,0,0,0,.5,1.2h-.7a2.3,2.3,0,0,0-2.3,2.3,2.3,2.3,0,0,0,2.3,2.3h.6a4,4,0,0,1-3.9,2.8c-3.4,0-4.8-3.7-4.9-4.6a2.4,2.4,0,0,0,2.2,1.7,2.3,2.3,0,0,0,0-4.6h-.7a2.1,2.1,0,0,0,.8-1.7,2.3,2.3,0,0,0-4.6,0,2.5,2.5,0,0,0,.8,1.8l-.7-.2a2.3,2.3,0,1,0,2.2,2.9c-.1,1.1-2.1,4.6-5,4.6a3.9,3.9,0,0,1-3.9-2.8h.6a2.3,2.3,0,0,0,2.3-2.3,2.3,2.3,0,0,0-2.3-2.3h-.7a1.8,1.8,0,0,0,.5-1.2,1.9,1.9,0,0,0-1.9-1.9,2.4,2.4,0,0,0-1.2.2,52.6,52.6,0,0,1,1.1,6.3l1.6,9.9H78V87l1.6-9.6c.4-2.4.8-5,1.1-6.3S80.8,70.9,79.9,70.9Z"/><path class="cls-1" d="M51.8,70.9a1.9,1.9,0,0,0-1.9,1.9,1.8,1.8,0,0,0,.5,1.2h-.7a2.3,2.3,0,0,0-2.3,2.3,2.3,2.3,0,0,0,2.3,2.3h.6a4,4,0,0,1-3.9,2.8c-3.4,0-4.8-3.7-4.9-4.6a2.4,2.4,0,0,0,2.2,1.7,2.3,2.3,0,0,0,0-4.6H43a2.1,2.1,0,0,0,.8-1.7,2.3,2.3,0,0,0-4.6,0,2.5,2.5,0,0,0,.8,1.8l-.7-.2a2.3,2.3,0,1,0,2.2,2.9c-.1,1.1-2.1,4.6-5,4.6a3.9,3.9,0,0,1-3.9-2.8h.6a2.3,2.3,0,0,0,2.3-2.3,2.3,2.3,0,0,0-2.3-2.3h-.7a1.8,1.8,0,0,0,.5-1.2,1.9,1.9,0,0,0-1.9-1.9,2.4,2.4,0,0,0-1.2.2A52.6,52.6,0,0,1,31,77.4l1.6,9.9H49.9V87l1.6-9.6c.4-2.4.8-5,1.1-6.3S52.7,70.9,51.8,70.9Z"/><path class="cls-1" d="M67.1,91.7A2.1,2.1,0,0,0,65,93.8a1.6,1.6,0,0,0,.6,1.3h-.7a2.6,2.6,0,1,0,0,5.2h.7a4.5,4.5,0,0,1-4.3,3.1c-3.8,0-5.3-4.1-5.5-5.1a2.6,2.6,0,0,0,2.5,1.9,2.6,2.6,0,0,0,0-5.2h-.8a2.8,2.8,0,0,0,.9-1.9,2.6,2.6,0,0,0-5.2,0,2.9,2.9,0,0,0,.9,2l-.8-.2a2.6,2.6,0,0,0,0,5.2,2.6,2.6,0,0,0,2.5-1.9c-.1,1.2-2.3,5.1-5.5,5.1a4.4,4.4,0,0,1-4.3-3.1h.7a2.6,2.6,0,1,0,0-5.2H46a1.9,1.9,0,0,0,.6-1.3,2.1,2.1,0,0,0-2.1-2.1,2.6,2.6,0,0,0-1.3.2c.5,2.1,1.2,6.4,1.3,7l1.8,11H65.6v-.3L67.3,99c.4-2.6.9-5.6,1.2-7A2.9,2.9,0,0,0,67.1,91.7Z"/></g></svg>